# xmcd CD database file
#
# Track frame offsets:
#	150
#	17854
#	36404
#	54108
#	72658
#
# Disc length: 2230 seconds
#
# Revision: 2
# Processed by: cddbd v1.5.2PL0 Copyright (c) Steve Scherf et al.
# Submitted via: CDex 1.70beta3
#
DISCID=4108b405
DTITLE=Guilty Kiss - Strawberry Trapper
DYEAR=2016
DGENRE=Anime
TTITLE0=Strawberry Trapper
TTITLE1=Guilty Night, Guilty Kiss!
TTITLE2=Strawberry Trapper (Off Vocal)
TTITLE3=Guilty Night, Guilty Kiss! (Off Vocal)
TTITLE4=遊覧船でどこまでも❤
EXTD=YEAR: 2016
EXTT0=
EXTT1=
EXTT2=
EXTT3=
EXTT4=
PLAYORDER=
